<?xml version="1.0" encoding="UTF-8" standalone="no"?>
<svg
   width="100"
   height="100"
   viewBox="0 0 100 100"
   version="1.1"
   id="svg6"
   sodipodi:docname="cloudflare.svg"
   inkscape:version="1.2 (dc2aedaf03, 2022-05-15)"
   xmlns:inkscape="http://www.inkscape.org/namespaces/inkscape"
   xmlns:sodipodi="http://sodipodi.sourceforge.net/DTD/sodipodi-0.dtd"
   xmlns="http://www.w3.org/2000/svg"
   xmlns:svg="http://www.w3.org/2000/svg">
  <defs
     id="defs10" />
  <sodipodi:namedview
     id="namedview8"
     pagecolor="#ffffff"
     bordercolor="#666666"
     borderopacity="1.0"
     inkscape:pageshadow="2"
     inkscape:pageopacity="0.0"
     inkscape:pagecheckerboard="0"
     showgrid="false"
     width="100px"
     inkscape:zoom="4.8028817"
     inkscape:cx="77.037084"
     inkscape:cy="105.66573"
     inkscape:current-layer="svg6"
     inkscape:showpageshadow="2"
     inkscape:deskcolor="#d1d1d1" />
  <rect
     style="fill:#f38020;fill-opacity:1;fill-rule:evenodd;stroke-width:0;stroke-linecap:square;stroke-miterlimit:3;paint-order:fill markers stroke"
     id="rect270"
     width="100"
     height="100"
     x="0"
     y="0" />
  <path
     d="m 608.2,592.4 c 3.1,-10.8 1.9,-20.7 -3.3,-28.1 -4.8,-6.7 -12.9,-10.6 -22.6,-11.1 l -184.7,-2.4 c -1.1,0 -2.2,-0.6 -2.8,-1.5 -0.6,-0.9 -0.7,-2.1 -0.4,-3.3 0.6,-1.8 2.4,-3.2 4.3,-3.3 l 186.4,-2.4 c 22.1,-1 46.1,-18.9 54.5,-40.8 l 10.6,-27.8 c 0.5,-1.2 0.6,-2.4 0.3,-3.6 -12,-54.3 -60.5,-94.8 -118.4,-94.8 -53.4,0 -98.7,34.5 -114.9,82.4 -10.5,-7.8 -23.9,-12 -38.3,-10.6 -25.7,2.5 -46.2,23.1 -48.8,48.8 -0.6,6.6 -0.1,13.1 1.4,19.1 -41.9,1.2 -75.3,35.4 -75.3,77.6 0,3.7 0.3,7.5 0.8,11.2 0.3,1.8 1.8,3.1 3.6,3.1 h 340.9 c 1.9,0 3.8,-1.4 4.3,-3.3 z M 667,473.7 c -1.6,0 -3.4,0 -5.1,0.2 -1.2,0 -2.2,0.9 -2.7,2.1 l -7.2,25 c -3.1,10.8 -2,20.7 3.3,28.1 4.8,6.7 12.9,10.6 22.7,11.1 l 39.3,2.4 c 1.2,0 2.3,0.6 2.8,1.5 0.6,0.9 0.7,2.3 0.5,3.3 -0.6,1.8 -2.4,3.2 -4.4,3.3 l -41,2.4 c -22.2,1 -46,18.9 -54.5,40.8 l -3,7.6 c -0.6,1.5 0.5,3 2.1,3 h 140.8 c 1.6,0 3.1,-1 3.6,-2.7 2.4,-8.7 3.7,-17.9 3.7,-27.3 0,-55.5 -45.3,-100.8 -101,-100.8"
     style="fill:#ffffff;stroke-width:1.77674"
     id="path4"
     transform="matrix(0.14070745,0,0,0.14070745,-22.04925,-18.820014)" />
</svg>
