<?xml version="1.0" encoding="UTF-8" standalone="no"?>
<svg
   height="120"
   viewBox="0 0 90.000001 90.000001"
   width="120"
   version="1.1"
   id="svg9"
   sodipodi:docname="NEXTDNS.svg"
   inkscape:version="1.2.2 (b0a8486541, 2022-12-01)"
   xmlns:inkscape="http://www.inkscape.org/namespaces/inkscape"
   xmlns:sodipodi="http://sodipodi.sourceforge.net/DTD/sodipodi-0.dtd"
   xmlns="http://www.w3.org/2000/svg"
   xmlns:svg="http://www.w3.org/2000/svg">
  <linearGradient
     id="a"
     gradientTransform="scale(0.92279681,1.0836622)"
     x1="45.903893"
     y1="3.5463083"
     x2="508.92734"
     y2="3.5463083"
     gradientUnits="userSpaceOnUse">&gt;<stop
   offset="0"
   stop-color="#00a9ff"
   id="stop2" />
<stop
   offset="1"
   stop-color="#05f"
   id="stop4" />
</linearGradient>
  <rect
     style="fill:#001030;fill-rule:evenodd;stroke-width:0;stroke-linecap:square;stroke-miterlimit:0"
     id="rect371"
     width="120"
     height="120"
     x="0"
     y="0"
     transform="scale(0.75)"
     ry="3.3190851e-15" />
  <path
     d="m 469.139,139.984 -0.016,-0.391 c -0.218,-4.819 -0.363,-9.919 -0.452,-15.592 C 468.262,96.335 446.269,73.451 418.6,71.904 360.91,68.685 316.281,49.873 278.15,12.706 l -0.326,-0.31 c -12.437,-11.404 -31.199,-11.404 -43.64,0 l -0.326,0.31 c -38.132,37.167 -82.76,55.979 -140.45,59.202 -27.666,1.543 -49.662,24.427 -50.072,52.097 -0.084,5.635 -0.233,10.734 -0.452,15.588 l -0.023,0.907 c -1.121,58.827 -2.515,132.04 21.978,198.493 13.467,36.543 33.863,68.309 60.618,94.42 30.472,29.737 70.384,53.345 118.626,70.166 1.57,0.547 3.2,0.991 4.862,1.324 2.343,0.467 4.701,0.701 7.059,0.701 2.358,0 4.72,-0.234 7.059,-0.701 1.661,-0.333 3.304,-0.78 4.881,-1.332 48.184,-16.851 88.054,-40.471 118.499,-70.204 26.744,-26.119 47.14,-57.892 60.619,-94.443 24.584,-66.652 23.194,-140.003 22.077,-198.94 z"
     fill="url(#a)"
     id="path7"
     style="fill:url(#a);stroke-width:6.69015"
     transform="matrix(0.14947355,0,0,0.14947355,6.7350329,6.9255742)" />
</svg>
