<?xml version="1.0" encoding="UTF-8" standalone="no"?>
<!-- Created with Inkscape (http://www.inkscape.org/) -->

<svg
   width="256"
   height="256"
   viewBox="0 0 256 256"
   version="1.1"
   id="svg5"
   xml:space="preserve"
   inkscape:version="1.2.2 (b0a8486541, 2022-12-01)"
   sodipodi:docname="Unifi-Controller.svg"
   xmlns:inkscape="http://www.inkscape.org/namespaces/inkscape"
   xmlns:sodipodi="http://sodipodi.sourceforge.net/DTD/sodipodi-0.dtd"
   xmlns:xlink="http://www.w3.org/1999/xlink"
   xmlns="http://www.w3.org/2000/svg"
   xmlns:svg="http://www.w3.org/2000/svg"><sodipodi:namedview
     id="namedview7"
     pagecolor="#888c8a"
     bordercolor="#888c8a"
     borderopacity="1"
     inkscape:showpageshadow="0"
     inkscape:pageopacity="0"
     inkscape:pagecheckerboard="1"
     inkscape:deskcolor="#888c8a"
     inkscape:document-units="mm"
     showgrid="false"
     inkscape:zoom="1.3487514"
     inkscape:cx="70.806229"
     inkscape:cy="217.60867"
     inkscape:window-width="2016"
     inkscape:window-height="1080"
     inkscape:window-x="651"
     inkscape:window-y="216"
     inkscape:window-maximized="0"
     inkscape:current-layer="layer1" /><defs
     id="defs2"><linearGradient
       inkscape:collect="always"
       id="linearGradient368"><stop
         style="stop-color:#0064fa;stop-opacity:1;"
         offset="0"
         id="stop364" /><stop
         style="stop-color:#001e46;stop-opacity:1;"
         offset="1"
         id="stop366" /></linearGradient><linearGradient
       inkscape:collect="always"
       xlink:href="#linearGradient368"
       id="linearGradient370"
       x1="512"
       y1="0"
       x2="0"
       y2="512"
       gradientUnits="userSpaceOnUse" /></defs><g
     inkscape:label="Layer 1"
     inkscape:groupmode="layer"
     id="layer1"><rect
       style="fill:#ffffff;fill-opacity:1;fill-rule:evenodd;stroke-width:0;stroke-linecap:square;stroke-miterlimit:0"
       id="rect2652"
       width="512"
       height="512"
       x="85.172028"
       y="123.93329"
       transform="matrix(0.5,0,0,0.5,-42.586014,-61.966641)"
       ry="3.3190851e-15" /><path
       style="fill:url(#linearGradient370);fill-opacity:1;stroke-width:2"
       d="M 0,256 V 0 H 256 512 V 256 512 H 256 0 Z m 286,191.48122 c 41.36809,-6.73987 78.39554,-25.67279 107.5,-54.96705 75.41844,-75.91028 75.20656,-197.85707 -0.47527,-273.5389 C 354.48369,80.434231 303.3305,60.308842 249,62.311093 199.62019,64.130896 154.66961,83.683508 119.33662,118.7121 49.726513,187.72249 43.059461,297.92804 103.77919,375.87436 c 12.32131,15.81693 30.28055,32.14276 47.72081,43.38053 23.80129,15.33655 56.33972,26.67242 85.26826,29.7061 11.62221,1.21881 37.42944,0.44311 49.23174,-1.47977 z M 241.5,337.58535 C 208.89126,331.19289 183.71024,307.53904 175.40621,275.5 c -2.49316,-9.61928 -2.49648,-29.35842 -0.007,-39 7.70708,-29.84353 31.3011,-53.42815 61.10033,-61.07602 9.61252,-2.46702 29.38748,-2.46702 39,0 44.70119,11.4724 71.59338,55.91721 60.85546,100.57602 -2.32993,9.69013 -9.25548,23.53868 -16.00439,32.0029 -10.45229,13.10883 -27.75752,24.19952 -44.35107,28.42399 -9.01463,2.295 -25.82326,2.8594 -34.5,1.15846 z M 273.39052,323.028 C 303.96488,315.2084 325,287.88895 325,256 c 0,-38.83834 -30.16166,-69 -69,-69 -38.76441,0 -69,30.23559 -69,69 0,26.37214 13.8381,49.25616 37.21553,61.54319 14.12571,7.42438 33.25081,9.55753 49.17499,5.48481 z"
       id="path302"
       transform="matrix(0.5,0,0,0.5,1.2060547e-6,0)" /></g></svg>
